<svg width="17" height="29" viewBox="0 0 17 29" fill="none" xmlns="http://www.w3.org/2000/svg">
<path fill-rule="evenodd" clip-rule="evenodd" d="M2.76969 3.52932C2.76969 2.56675 3.55001 1.78644 4.51258 1.78644C5.47514 1.78644 6.25546 2.56675 6.25546 3.52932C6.25546 4.49189 5.47514 5.2722 4.51258 5.2722C3.55001 5.2722 2.76969 4.49189 2.76969 3.52932ZM8.0419 3.52932C8.0419 5.20929 6.86811 6.61512 5.29592 6.97141V8.94099H8.04102V10.588H5.29592V12.5576C6.86797 12.914 8.04161 14.3197 8.04161 15.9996C8.04161 17.9488 6.46148 19.5289 4.51229 19.5289C2.5631 19.5289 0.98297 17.9488 0.98297 15.9996C0.98297 14.3483 2.11708 12.9618 3.6489 12.5767V10.588H0.982378L0.982378 8.94099H3.6489V6.9522C2.11722 6.56694 0.983253 5.18056 0.983253 3.52932C0.983253 1.58013 2.56338 0 4.51258 0C6.46177 0 8.0419 1.58013 8.0419 3.52932ZM16.9826 15.9996C16.9826 17.9488 15.4024 19.5289 13.4532 19.5289C11.504 19.5289 9.92391 17.9488 9.92391 15.9996C9.92391 14.0504 11.504 12.4703 13.4532 12.4703C15.4024 12.4703 16.9826 14.0504 16.9826 15.9996ZM8.04161 24.9406C8.04161 26.8898 6.46148 28.4699 4.51229 28.4699C2.5631 28.4699 0.98297 26.8898 0.98297 24.9406C0.98297 22.9914 2.5631 21.4113 4.51229 21.4113C6.46148 21.4113 8.04161 22.9914 8.04161 24.9406ZM13.4532 28.4699C15.4024 28.4699 16.9826 26.8898 16.9826 24.9406C16.9826 22.9914 15.4024 21.4113 13.4532 21.4113C11.504 21.4113 9.92391 22.9914 9.92391 24.9406C9.92391 26.8898 11.504 28.4699 13.4532 28.4699Z" fill="#E2698D"/>
</svg>
